G04 #@! TF.GenerationSoftware,KiCad,Pcbnew,no-vcs-found-01f5a12~58~ubuntu17.04.1*
G04 #@! TF.CreationDate,2017-04-20T18:40:21-07:00*
G04 #@! TF.ProjectId,Reflection_Bridge,5265666C656374696F6E5F4272696467,rev?*
G04 #@! TF.FileFunction,Legend,Top*
G04 #@! TF.FilePolarity,Positive*
%FSLAX46Y46*%
G04 Gerber Fmt 4.6, Leading zero omitted, Abs format (unit mm)*
G04 Created by KiCad (PCBNEW no-vcs-found-01f5a12~58~ubuntu17.04.1) date Thu Apr 20 18:40:21 2017*
%MOMM*%
%LPD*%
G01*
G04 APERTURE LIST*
%ADD10C,0.100000*%
%ADD11C,0.300000*%
%ADD12C,0.150000*%
%ADD13C,0.120000*%
%ADD14C,0.131000*%
G04 APERTURE END LIST*
D10*
D11*
X82435714Y-70778571D02*
X81935714Y-70064285D01*
X81578571Y-70778571D02*
X81578571Y-69278571D01*
X82150000Y-69278571D01*
X82292857Y-69350000D01*
X82364285Y-69421428D01*
X82435714Y-69564285D01*
X82435714Y-69778571D01*
X82364285Y-69921428D01*
X82292857Y-69992857D01*
X82150000Y-70064285D01*
X81578571Y-70064285D01*
X83078571Y-69992857D02*
X83578571Y-69992857D01*
X83792857Y-70778571D02*
X83078571Y-70778571D01*
X83078571Y-69278571D01*
X83792857Y-69278571D01*
X84935714Y-69992857D02*
X84435714Y-69992857D01*
X84435714Y-70778571D02*
X84435714Y-69278571D01*
X85150000Y-69278571D01*
X86435714Y-70778571D02*
X85721428Y-70778571D01*
X85721428Y-69278571D01*
X83150000Y-66778571D02*
X83150000Y-65278571D01*
X83507142Y-65278571D01*
X83721428Y-65350000D01*
X83864285Y-65492857D01*
X83935714Y-65635714D01*
X84007142Y-65921428D01*
X84007142Y-66135714D01*
X83935714Y-66421428D01*
X83864285Y-66564285D01*
X83721428Y-66707142D01*
X83507142Y-66778571D01*
X83150000Y-66778571D01*
X84650000Y-65278571D02*
X84650000Y-66492857D01*
X84721428Y-66635714D01*
X84792857Y-66707142D01*
X84935714Y-66778571D01*
X85221428Y-66778571D01*
X85364285Y-66707142D01*
X85435714Y-66635714D01*
X85507142Y-66492857D01*
X85507142Y-65278571D01*
X86007142Y-65278571D02*
X86864285Y-65278571D01*
X86435714Y-66778571D02*
X86435714Y-65278571D01*
X83664285Y-62628571D02*
X83664285Y-61128571D01*
X84378571Y-62628571D02*
X84378571Y-61128571D01*
X85235714Y-62628571D01*
X85235714Y-61128571D01*
D12*
X80772000Y-48514000D02*
X86360000Y-48514000D01*
X86360000Y-48514000D02*
X86868000Y-49022000D01*
X86868000Y-49022000D02*
X86360000Y-49530000D01*
X86360000Y-49530000D02*
X86868000Y-50038000D01*
X86868000Y-50038000D02*
X86360000Y-50546000D01*
X86360000Y-50546000D02*
X86868000Y-51054000D01*
X86868000Y-51054000D02*
X86360000Y-51562000D01*
X86360000Y-51562000D02*
X86868000Y-52070000D01*
X80264000Y-52070000D02*
X80772000Y-51562000D01*
X80772000Y-51562000D02*
X80264000Y-51054000D01*
X80264000Y-51054000D02*
X80772000Y-50546000D01*
X80772000Y-50546000D02*
X80264000Y-50038000D01*
X80264000Y-50038000D02*
X80772000Y-49530000D01*
X80772000Y-49530000D02*
X80264000Y-49022000D01*
X80264000Y-49022000D02*
X80772000Y-48514000D01*
X86868000Y-52070000D02*
X86360000Y-52578000D01*
X86360000Y-52578000D02*
X86360000Y-54610000D01*
X86360000Y-54610000D02*
X88392000Y-54610000D01*
X88392000Y-54610000D02*
X88392000Y-55626000D01*
X88392000Y-55626000D02*
X79248000Y-55626000D01*
X79248000Y-55626000D02*
X79248000Y-54610000D01*
X79248000Y-54610000D02*
X80772000Y-54610000D01*
X80772000Y-54610000D02*
X80772000Y-52578000D01*
X80772000Y-52578000D02*
X80264000Y-52070000D01*
X86868000Y-79502000D02*
X87376000Y-80010000D01*
X86868000Y-77470000D02*
X86868000Y-79502000D01*
X88392000Y-77470000D02*
X86868000Y-77470000D01*
X88392000Y-76454000D02*
X88392000Y-77470000D01*
X79248000Y-76454000D02*
X88392000Y-76454000D01*
X79248000Y-77470000D02*
X79248000Y-76454000D01*
X81280000Y-77470000D02*
X79248000Y-77470000D01*
X81280000Y-79502000D02*
X81280000Y-77470000D01*
X80772000Y-80010000D02*
X81280000Y-79502000D01*
X87376000Y-83058000D02*
X86868000Y-83566000D01*
X86868000Y-82550000D02*
X87376000Y-83058000D01*
X87376000Y-82042000D02*
X86868000Y-82550000D01*
X86868000Y-81534000D02*
X87376000Y-82042000D01*
X87376000Y-81026000D02*
X86868000Y-81534000D01*
X86868000Y-80518000D02*
X87376000Y-81026000D01*
X87376000Y-80010000D02*
X86868000Y-80518000D01*
X81280000Y-80518000D02*
X80772000Y-80010000D01*
X80772000Y-81026000D02*
X81280000Y-80518000D01*
X81280000Y-81534000D02*
X80772000Y-81026000D01*
X80772000Y-82042000D02*
X81280000Y-81534000D01*
X81280000Y-82550000D02*
X80772000Y-82042000D01*
X80772000Y-83058000D02*
X81280000Y-82550000D01*
X81280000Y-83566000D02*
X80772000Y-83058000D01*
X86868000Y-83566000D02*
X81280000Y-83566000D01*
X99414000Y-62992000D02*
X99414000Y-68580000D01*
X99414000Y-68580000D02*
X98906000Y-69088000D01*
X98906000Y-69088000D02*
X98398000Y-68580000D01*
X98398000Y-68580000D02*
X97890000Y-69088000D01*
X97890000Y-69088000D02*
X97382000Y-68580000D01*
X97382000Y-68580000D02*
X96874000Y-69088000D01*
X96874000Y-69088000D02*
X96366000Y-68580000D01*
X96366000Y-68580000D02*
X95858000Y-69088000D01*
X95858000Y-62484000D02*
X96366000Y-62992000D01*
X96366000Y-62992000D02*
X96874000Y-62484000D01*
X96874000Y-62484000D02*
X97382000Y-62992000D01*
X97382000Y-62992000D02*
X97890000Y-62484000D01*
X97890000Y-62484000D02*
X98398000Y-62992000D01*
X98398000Y-62992000D02*
X98906000Y-62484000D01*
X98906000Y-62484000D02*
X99414000Y-62992000D01*
X95858000Y-69088000D02*
X95350000Y-68580000D01*
X95350000Y-68580000D02*
X93318000Y-68580000D01*
X93318000Y-68580000D02*
X93318000Y-70612000D01*
X93318000Y-70612000D02*
X92302000Y-70612000D01*
X92302000Y-70612000D02*
X92302000Y-61468000D01*
X92302000Y-61468000D02*
X93318000Y-61468000D01*
X93318000Y-61468000D02*
X93318000Y-62992000D01*
X93318000Y-62992000D02*
X95350000Y-62992000D01*
X95350000Y-62992000D02*
X95858000Y-62484000D01*
D13*
X80890000Y-62900000D02*
X80890000Y-64100000D01*
X79130000Y-64100000D02*
X79130000Y-62900000D01*
X80890000Y-66710000D02*
X80890000Y-67910000D01*
X79130000Y-67910000D02*
X79130000Y-66710000D01*
X81670000Y-64100000D02*
X81670000Y-62900000D01*
X83430000Y-62900000D02*
X83430000Y-64100000D01*
D14*
X89737047Y-56886761D02*
X89213047Y-56886761D01*
X89213047Y-56687142D01*
X89238000Y-56637238D01*
X89262952Y-56612285D01*
X89312857Y-56587333D01*
X89387714Y-56587333D01*
X89437619Y-56612285D01*
X89462571Y-56637238D01*
X89487523Y-56687142D01*
X89487523Y-56886761D01*
X89737047Y-56088285D02*
X89737047Y-56387714D01*
X89737047Y-56238000D02*
X89213047Y-56238000D01*
X89287904Y-56287904D01*
X89337809Y-56337809D01*
X89362761Y-56387714D01*
X89637047Y-75786761D02*
X89113047Y-75786761D01*
X89113047Y-75587142D01*
X89138000Y-75537238D01*
X89162952Y-75512285D01*
X89212857Y-75487333D01*
X89287714Y-75487333D01*
X89337619Y-75512285D01*
X89362571Y-75537238D01*
X89387523Y-75587142D01*
X89387523Y-75786761D01*
X89162952Y-75287714D02*
X89138000Y-75262761D01*
X89113047Y-75212857D01*
X89113047Y-75088095D01*
X89138000Y-75038190D01*
X89162952Y-75013238D01*
X89212857Y-74988285D01*
X89262761Y-74988285D01*
X89337619Y-75013238D01*
X89637047Y-75312666D01*
X89637047Y-74988285D01*
X90613238Y-60537047D02*
X90613238Y-60013047D01*
X90812857Y-60013047D01*
X90862761Y-60038000D01*
X90887714Y-60062952D01*
X90912666Y-60112857D01*
X90912666Y-60187714D01*
X90887714Y-60237619D01*
X90862761Y-60262571D01*
X90812857Y-60287523D01*
X90613238Y-60287523D01*
X91087333Y-60013047D02*
X91411714Y-60013047D01*
X91237047Y-60212666D01*
X91311904Y-60212666D01*
X91361809Y-60237619D01*
X91386761Y-60262571D01*
X91411714Y-60312476D01*
X91411714Y-60437238D01*
X91386761Y-60487142D01*
X91361809Y-60512095D01*
X91311904Y-60537047D01*
X91162190Y-60537047D01*
X91112285Y-60512095D01*
X91087333Y-60487142D01*
D10*
X80339285Y-61425000D02*
X79982142Y-61675000D01*
X80339285Y-61853571D02*
X79589285Y-61853571D01*
X79589285Y-61567857D01*
X79625000Y-61496428D01*
X79660714Y-61460714D01*
X79732142Y-61425000D01*
X79839285Y-61425000D01*
X79910714Y-61460714D01*
X79946428Y-61496428D01*
X79982142Y-61567857D01*
X79982142Y-61853571D01*
X80339285Y-60710714D02*
X80339285Y-61139285D01*
X80339285Y-60925000D02*
X79589285Y-60925000D01*
X79696428Y-60996428D01*
X79767857Y-61067857D01*
X79803571Y-61139285D01*
X81789285Y-67575000D02*
X81432142Y-67825000D01*
X81789285Y-68003571D02*
X81039285Y-68003571D01*
X81039285Y-67717857D01*
X81075000Y-67646428D01*
X81110714Y-67610714D01*
X81182142Y-67575000D01*
X81289285Y-67575000D01*
X81360714Y-67610714D01*
X81396428Y-67646428D01*
X81432142Y-67717857D01*
X81432142Y-68003571D01*
X81110714Y-67289285D02*
X81075000Y-67253571D01*
X81039285Y-67182142D01*
X81039285Y-67003571D01*
X81075000Y-66932142D01*
X81110714Y-66896428D01*
X81182142Y-66860714D01*
X81253571Y-66860714D01*
X81360714Y-66896428D01*
X81789285Y-67325000D01*
X81789285Y-66860714D01*
X84339285Y-63975000D02*
X83982142Y-64225000D01*
X84339285Y-64403571D02*
X83589285Y-64403571D01*
X83589285Y-64117857D01*
X83625000Y-64046428D01*
X83660714Y-64010714D01*
X83732142Y-63975000D01*
X83839285Y-63975000D01*
X83910714Y-64010714D01*
X83946428Y-64046428D01*
X83982142Y-64117857D01*
X83982142Y-64403571D01*
X83589285Y-63725000D02*
X83589285Y-63260714D01*
X83875000Y-63510714D01*
X83875000Y-63403571D01*
X83910714Y-63332142D01*
X83946428Y-63296428D01*
X84017857Y-63260714D01*
X84196428Y-63260714D01*
X84267857Y-63296428D01*
X84303571Y-63332142D01*
X84339285Y-63403571D01*
X84339285Y-63617857D01*
X84303571Y-63689285D01*
X84267857Y-63725000D01*
M02*
